<?xml version="1.0" encoding="UTF-8" standalone="no"?>
<!DOCTYPE svg PUBLIC "-//W3C//DTD SVG 1.1//EN" "http://www.w3.org/Graphics/SVG/1.1/DTD/svg11.dtd">
<svg width="100%" height="100%" viewBox="0 0 2048 2048" version="1.1" xmlns="http://www.w3.org/2000/svg" xmlns:xlink="http://www.w3.org/1999/xlink" xml:space="preserve" xmlns:serif="http://www.serif.com/" style="fill-rule:evenodd;clip-rule:evenodd;stroke-linecap:round;stroke-linejoin:round;stroke-miterlimit:1.5;">
    <g transform="matrix(1,0,0,1,-2226.609313,0)">
        <g id="Logo-Wide" serif:id="Logo Wide" transform="matrix(1,0,0,1,2226.609313,0)">
            <rect x="0" y="0" width="2048" height="2048" style="fill:none;"/>
            <clipPath id="_clip1">
                <rect x="0" y="0" width="2048" height="2048"/>
            </clipPath>
            <g clip-path="url(#_clip1)">
                <g transform="matrix(1.977434,0,0,1.578833,-730.720829,-252.613274)">
                    <g transform="matrix(2.5,-1.443376,0,4.333333,-942.235639,-1760)">
                        <rect x="665.108" y="768" width="221.703" height="192" style="fill:rgb(88,0,255);"/>
                    </g>
                    <g transform="matrix(1.75,-1.010363,0,2.333333,-360.266568,-240)">
                        <rect x="665.108" y="768" width="221.703" height="192" style="fill:rgb(245,203,33);"/>
                    </g>
                    <g transform="matrix(1.75,-1.010363,0,0.041667,-360.266568,1836)">
                        <rect x="665.108" y="768" width="221.703" height="192" style="fill:rgb(234,178,29);"/>
                    </g>
                    <g transform="matrix(1.75,-1.010363,0,0.041667,-360.266568,1688)">
                        <rect x="665.108" y="768" width="221.703" height="192" style="fill:rgb(234,178,29);"/>
                    </g>
                    <g transform="matrix(0.375,-0.216506,0,0.166667,568.112665,984)">
                        <rect x="665.108" y="768" width="221.703" height="192"/>
                    </g>
                    <g transform="matrix(0.375,-0.216506,0,0.166667,678.963917,920)">
                        <rect x="665.108" y="768" width="221.703" height="192"/>
                    </g>
                    <g transform="matrix(0.375,-0.216506,0,0.166667,789.815168,856)">
                        <rect x="665.108" y="768" width="221.703" height="192"/>
                    </g>
                    <g transform="matrix(1.75,-1.010363,0.810951,0.468203,-1038.502207,1672.420471)">
                        <rect x="665.108" y="768" width="221.703" height="192" style="fill:rgb(143,103,216);"/>
                    </g>
                    <g transform="matrix(0.702304,0.405475,-0,0.075685,293.723122,1024.923419)">
                        <rect x="665.108" y="768" width="221.703" height="192" style="fill:rgb(109,76,168);"/>
                    </g>
                    <g transform="matrix(1.693236,-0.97759,0,0.075685,-209.650956,2034.705636)">
                        <rect x="665.108" y="768" width="221.703" height="192" style="fill:rgb(109,76,168);"/>
                    </g>
                    <g transform="matrix(0.375,-0.216506,0,0.5,471.11782,1104)">
                        <rect x="665.108" y="768" width="221.703" height="192" style="fill:rgb(88,0,255);"/>
                    </g>
                    <g transform="matrix(1,0.57735,-0,4.333333,-166.276878,-3232)">
                        <rect x="665.108" y="768" width="221.703" height="192" style="fill:rgb(54,0,157);"/>
                    </g>
                    <g transform="matrix(0.25,0.144338,-0,2.666667,969.948452,-1520)">
                        <rect x="665.108" y="768" width="221.703" height="192" style="fill:rgb(54,0,157);"/>
                    </g>
                    <g transform="matrix(2.5,-1.443376,0,1.666667,-942.235639,288)">
                        <rect x="665.108" y="768" width="221.703" height="192" style="fill:rgb(88,0,255);"/>
                    </g>
                    <g transform="matrix(2.375,-1.371207,0,0.5,-1025.374078,1008)">
                        <rect x="665.108" y="768" width="221.703" height="192" style="fill:rgb(54,0,157);"/>
                    </g>
                    <g transform="matrix(2.25,-1.299038,1.154701,0.666667,-1884.471279,832)">
                        <rect x="665.108" y="768" width="221.703" height="192" style="fill:rgb(147,108,219);"/>
                    </g>
                    <g transform="matrix(2.125,-1.226869,0.038621,0.022298,-840.184092,1306.919489)">
                        <rect x="665.108" y="768" width="221.703" height="192" style="fill:rgb(117,73,199);fill-opacity:0.5;"/>
                    </g>
                    <g transform="matrix(2.125,-1.226869,0.038621,0.022298,-840.184092,1306.919489)">
                        <rect x="665.108" y="768" width="221.703" height="192" style="fill:rgb(117,73,199);fill-opacity:0.5;"/>
                    </g>
                    <g transform="matrix(2.125,-1.226869,0.038621,0.022298,-813.035343,1322.593826)">
                        <rect x="665.108" y="768" width="221.703" height="192" style="fill:rgb(117,73,199);fill-opacity:0.5;"/>
                    </g>
                    <g transform="matrix(2.125,-1.226869,0.038621,0.022298,-785.886595,1338.268163)">
                        <rect x="665.108" y="768" width="221.703" height="192" style="fill:rgb(117,73,199);fill-opacity:0.5;"/>
                    </g>
                    <g transform="matrix(2.125,-1.226869,0.038621,0.022298,-758.737847,1353.9425)">
                        <rect x="665.108" y="768" width="221.703" height="192" style="fill:rgb(117,73,199);fill-opacity:0.5;"/>
                    </g>
                    <g transform="matrix(2.375,-1.371207,0,0.166667,-1025.374078,1264)">
                        <rect x="665.108" y="768" width="221.703" height="192" style="fill:rgb(54,0,157);"/>
                    </g>
                    <g transform="matrix(2.5,-1.443376,0.144338,0.083333,-1080.799704,1488)">
                        <rect x="665.108" y="768" width="221.703" height="192" style="fill:rgb(117,73,199);"/>
                    </g>
                    <g transform="matrix(2.375,-1.371207,0.144338,0.083333,-1163.938143,1312)">
                        <rect x="665.108" y="768" width="221.703" height="192" style="fill:rgb(117,73,199);"/>
                    </g>
                    <g transform="matrix(0.125,-0.072169,1.010363,0.583333,-360.266568,80)">
                        <rect x="665.108" y="768" width="221.703" height="192" style="fill:rgb(117,73,199);"/>
                    </g>
                    <g transform="matrix(0,-0.860262,0.745009,0.430131,375.43408,1008.623686)">
                        <path d="M176.448,255.704C183.986,255.704 190.268,257.126 195.293,259.969C200.319,262.813 204.485,266.615 207.791,271.376L208.783,271.376L211.361,257.688L236.753,257.688L236.753,366.793C236.753,376.977 234.77,385.54 230.802,392.483C226.835,399.426 220.85,404.683 212.849,408.254C204.848,411.824 194.698,413.61 182.399,413.61C174.067,413.61 166.595,413.114 159.983,412.122C153.37,411.13 147.154,409.444 141.336,407.063L141.336,381.672C147.287,384.317 153.403,386.366 159.685,387.821C165.967,389.276 173.208,390.003 181.407,390.003C189.739,390.003 196.054,388.086 200.352,384.25C204.65,380.415 206.799,375.125 206.799,368.38L206.799,365.405C206.799,363.818 206.898,361.702 207.096,359.057C207.295,356.412 207.526,354.098 207.791,352.114L206.799,352.114C203.757,356.875 199.757,360.71 194.797,363.62C189.838,366.529 183.655,367.984 176.249,367.984C163.818,367.984 153.866,363.157 146.394,353.502C138.922,343.848 135.186,330.028 135.186,312.042C135.186,294.056 138.955,280.17 146.493,270.384C154.031,260.597 164.016,255.704 176.448,255.704ZM186.168,279.311C181.804,279.311 178.068,280.567 174.96,283.08C171.852,285.592 169.538,289.295 168.017,294.189C166.496,299.082 165.735,305.165 165.735,312.439C165.735,323.284 167.488,331.351 170.992,336.641C174.497,341.931 179.754,344.576 186.763,344.576C190.731,344.576 194.103,343.981 196.88,342.79C199.657,341.6 201.906,339.848 203.625,337.533C205.344,335.219 206.634,332.276 207.493,328.706C208.353,325.135 208.783,320.903 208.783,316.01L208.783,311.646C208.783,304.372 208.055,298.355 206.6,293.594C205.146,288.833 202.765,285.262 199.459,282.881C196.153,280.501 191.722,279.311 186.168,279.311Z" style="fill:rgb(68,0,197);fill-rule:nonzero;"/>
                        <rect x="255.797" y="215.236" width="29.954" height="150.764" style="fill:rgb(68,0,197);fill-rule:nonzero;"/>
                        <path d="M404.974,311.646C404.974,320.639 403.751,328.64 401.304,335.649C398.858,342.658 395.353,348.543 390.791,353.304C386.228,358.065 380.707,361.702 374.226,364.215C367.746,366.727 360.406,367.984 352.207,367.984C344.536,367.984 337.527,366.727 331.179,364.215C324.831,361.702 319.343,358.065 314.714,353.304C310.086,348.543 306.449,342.658 303.804,335.649C301.159,328.64 299.836,320.639 299.836,311.646C299.836,299.611 301.952,289.428 306.184,281.096C310.416,272.764 316.5,266.449 324.435,262.151C332.369,257.853 341.825,255.704 352.802,255.704C362.985,255.704 371.978,257.853 379.781,262.151C387.584,266.449 393.733,272.764 398.23,281.096C402.726,289.428 404.974,299.611 404.974,311.646ZM330.386,311.646C330.386,318.655 331.146,324.672 332.667,329.698C334.188,334.723 336.568,338.558 339.809,341.203C343.049,343.848 347.314,345.171 352.604,345.171C357.761,345.171 361.96,343.848 365.2,341.203C368.44,338.558 370.788,334.723 372.243,329.698C373.697,324.672 374.425,318.655 374.425,311.646C374.425,304.504 373.664,298.487 372.143,293.594C370.623,288.7 368.275,284.964 365.101,282.385C361.927,279.807 357.695,278.517 352.405,278.517C344.735,278.517 339.147,281.361 335.643,287.047C332.138,292.734 330.386,300.933 330.386,311.646Z" style="fill:rgb(68,0,197);fill-rule:nonzero;"/>
                        <path d="M455.163,255.704C462.701,255.704 468.983,257.126 474.008,259.969C479.034,262.813 483.2,266.615 486.506,271.376L487.498,271.376L490.077,257.688L515.469,257.688L515.469,366.793C515.469,376.977 513.485,385.54 509.517,392.483C505.55,399.426 499.566,404.683 491.564,408.254C483.563,411.824 473.413,413.61 461.114,413.61C452.782,413.61 445.31,413.114 438.698,412.122C432.085,411.13 425.87,409.444 420.051,407.063L420.051,381.672C426.002,384.317 432.118,386.366 438.4,387.821C444.682,389.276 451.923,390.003 460.122,390.003C468.454,390.003 474.769,388.086 479.067,384.25C483.365,380.415 485.514,375.125 485.514,368.38L485.514,365.405C485.514,363.818 485.613,361.702 485.812,359.057C486.01,356.412 486.241,354.098 486.506,352.114L485.514,352.114C482.472,356.875 478.472,360.71 473.512,363.62C468.553,366.529 462.37,367.984 454.965,367.984C442.533,367.984 432.581,363.157 425.109,353.502C417.637,343.848 413.901,330.028 413.901,312.042C413.901,294.056 417.67,280.17 425.208,270.384C432.747,260.597 442.731,255.704 455.163,255.704ZM464.883,279.311C460.519,279.311 456.783,280.567 453.675,283.08C450.567,285.592 448.253,289.295 446.732,294.189C445.211,299.082 444.451,305.165 444.451,312.439C444.451,323.284 446.203,331.351 449.708,336.641C453.212,341.931 458.469,344.576 465.478,344.576C469.446,344.576 472.818,343.981 475.595,342.79C478.373,341.6 480.621,339.848 482.34,337.533C484.059,335.219 485.349,332.276 486.208,328.706C487.068,325.135 487.498,320.903 487.498,316.01L487.498,311.646C487.498,304.372 486.77,298.355 485.316,293.594C483.861,288.833 481.48,285.262 478.174,282.881C474.868,280.501 470.438,279.311 464.883,279.311Z" style="fill:rgb(68,0,197);fill-rule:nonzero;"/>
                    </g>
                    <g id="Trans" transform="matrix(0.055055,0.031786,-0,0.063572,544.7311,1100.588311)">
                        <g opacity="0.5">
                            <g transform="matrix(0.804969,0,0,-0.804969,746.047986,1852.553833)">
                                <path d="M163.824,50.308C159.207,78.09 155.164,100.808 154.84,100.8C154.512,100.793 146.82,92.98 137.746,83.437C125.086,70.125 121.082,66.461 120.543,67.699C120.16,68.59 116.203,91.343 111.754,118.269C107.305,145.195 103.527,167.363 103.359,167.535C103.188,167.703 95.496,159.945 86.266,150.293C77.035,140.64 69.289,132.937 69.055,133.172C68.754,133.468 51.965,231.894 51.762,234.543C51.754,234.664 43.98,226.656 34.496,216.746C22.133,203.832 17.141,199.218 16.883,200.468C16.684,201.429 12.805,224.496 8.262,251.726L0,301.238L11.621,313.527C18.016,320.285 23.48,325.812 23.766,325.816C24.055,325.816 26.766,310.851 29.793,292.566C32.82,274.277 35.562,259.316 35.887,259.316C36.316,259.316 1176.66,1450.972 1193.379,1468.886L1195.777,1471.461L1166.762,1480.386C1150.805,1485.297 1137.746,1489.652 1137.746,1490.066C1137.746,1490.48 1142.395,1495.625 1148.078,1501.496L1158.406,1512.172L1201.828,1498.828C1225.707,1491.492 1245.586,1485.195 1246.004,1484.843C1246.422,1484.488 1238.656,1475.679 1228.754,1465.269C1218.848,1454.859 1210.75,1446.109 1210.754,1445.828C1210.762,1445.547 1230.449,1439.281 1254.504,1431.906C1278.562,1424.535 1298.414,1418.363 1298.625,1418.195C1298.836,1418.023 1290.656,1409.211 1280.453,1398.605C1270.25,1388 1262,1379.226 1262.117,1379.105C1262.238,1378.988 1282.082,1372.793 1306.219,1365.34C1330.355,1357.886 1350.219,1351.675 1350.355,1351.539C1350.488,1351.402 1342.234,1342.57 1332.004,1331.914L1313.406,1312.539L1346.824,1302.187C1365.207,1296.496 1385.082,1290.39 1390.996,1288.617C1396.906,1286.843 1401.746,1285.105 1401.746,1284.75C1401.746,1283.992 174.035,0.433 172.953,0.058C172.547,-0.078 168.441,22.531 163.824,50.308ZM771.141,665.269C1150.941,1062.32 1350.332,1271.461 1349.504,1271.914C1348.812,1272.297 1336.32,1276.265 1321.746,1280.738C1307.168,1285.207 1294.488,1289.101 1293.562,1289.386C1292.324,1289.769 1145.719,1137.093 741.168,714.109C438.281,397.422 187.973,135.75 184.934,132.617L179.406,126.914L184.66,95.117C190.016,62.687 190.781,58.496 191.25,59.019C191.398,59.179 452.348,331.996 771.141,665.269ZM720.102,732.597C1038.082,1064.992 1298.367,1337.289 1298.516,1337.699C1298.664,1338.109 1285.613,1342.531 1269.516,1347.527L1240.246,1356.605L1237.129,1353.461C1232.598,1348.886 132.672,198.644 129.961,195.64L127.676,193.113L133.211,160.019C136.254,141.816 138.746,126.621 138.746,126.246C138.746,125.875 139.469,126.172 140.352,126.906C141.238,127.64 402.125,400.203 720.102,732.597ZM673.715,804.664C988.992,1134.304 1246.566,1404.375 1246.098,1404.824C1245.629,1405.269 1232.473,1409.55 1216.863,1414.336L1188.484,1423.035L1181.746,1416.175C1178.039,1412.402 931.891,1155.066 634.742,844.316C337.598,533.566 90.277,275.039 85.148,269.816L75.816,260.316L81.516,226.058L87.215,191.804L93.848,198.558C97.496,202.273 358.438,475.023 673.715,804.664ZM261.754,1203.398C261.738,1205.363 165.816,1784.25 165.02,1787.179C164.367,1789.59 163.324,1790.328 158.41,1791.847C155.199,1792.84 152.363,1793.863 152.105,1794.121C151.625,1794.601 146.691,1824.136 147.047,1824.402C147.156,1824.48 156.75,1821.609 168.367,1818.015L189.492,1811.48L193.883,1784.898L198.277,1758.316L208.262,1755.132C213.75,1753.382 223.426,1750.355 229.758,1748.402L241.273,1744.851L245.758,1718.168L250.246,1691.488L271.246,1685.027C282.793,1681.476 292.43,1678.402 292.652,1678.199C292.879,1677.996 295.035,1666.031 297.449,1651.613C299.859,1637.191 301.98,1625.246 302.16,1625.066C302.34,1624.882 311.805,1621.871 323.191,1618.367C334.578,1614.863 344.121,1611.773 344.395,1611.496C344.977,1610.918 389.707,1341.3 389.719,1338.316C389.727,1336.054 365.875,1310.488 365.793,1312.672C365.734,1314.265 320.98,1585.367 320.289,1588.316C319.949,1589.769 318.145,1590.804 313.664,1592.113C310.277,1593.101 307.395,1593.777 307.254,1593.613C307.117,1593.449 317.934,1527.422 331.297,1446.882L355.594,1300.453L343.918,1288.234C337.5,1281.515 331.969,1276.308 331.629,1276.668C331.293,1277.023 316.902,1362.695 299.656,1467.047L268.293,1656.777L262.27,1658.59C257.875,1659.914 256.164,1660.082 255.941,1659.222C255.777,1658.57 270.297,1569.519 288.207,1461.328L320.773,1264.617L314.836,1257.964C311.57,1254.308 306.191,1248.656 302.883,1245.406C297.129,1239.757 296.84,1239.601 296.309,1241.906C296,1243.23 277.969,1351.847 256.238,1483.273C234.504,1614.703 216.391,1722.535 215.984,1722.902C214.812,1723.957 204.668,1727.07 204.137,1726.539C203.871,1726.273 222.125,1614.515 244.699,1478.187C267.277,1341.859 285.723,1229.64 285.695,1228.816C285.637,1227.093 261.766,1201.754 261.754,1203.398Z" style="fill:rgb(0,242,255);fill-rule:nonzero;"/>
                            </g>
                            <g transform="matrix(-0.955462,-0.295113,0.295113,-0.955462,1405.705259,2264.664896)">
                                <path d="M200.157,1677.512L840.914,395.999L1481.671,1677.512L1091.393,1677.512L840.914,1176.554L590.435,1677.512L200.157,1677.512Z" style="fill:rgb(175,0,255);"/>
                            </g>
                        </g>
                    </g>
                    <g transform="matrix(1,0,0,1,-7.769598,-62.977404)">
                        <g transform="matrix(2.686751,-1.551197,3.102393,1.791168,-2293.569376,-1236.101187)">
                            <path d="M5.331,1128.788C-1.204,1137.526 -12.561,1143.313 -25.466,1143.313C-45.702,1143.313 -62.131,1129.085 -62.131,1111.56C-62.131,1099.892 -54.848,1089.685 -44.008,1084.166C-40.399,1082.329 -36.396,1081.012 -32.136,1080.332L4.569,1068.478C6.56,1067.601 8.813,1067.107 11.199,1067.107C19.293,1067.107 25.864,1072.798 25.864,1079.807C25.864,1081.791 25.338,1083.668 24.4,1085.342L10.08,1119.367C9.469,1121.457 8.619,1123.465 7.555,1125.367L5.331,1128.788Z" style="fill:url(#_Linear2);"/>
                        </g>
                        <g transform="matrix(0.866025,-0.5,1,0.57735,-3,8.983888)">
                            <path d="M5.331,1128.788C-1.204,1137.526 -12.561,1143.313 -25.466,1143.313C-45.702,1143.313 -62.131,1129.085 -62.131,1111.56C-62.131,1099.892 -54.848,1089.685 -44.008,1084.166C-40.399,1082.329 -36.396,1081.012 -32.136,1080.332L4.569,1068.478C6.56,1067.601 8.813,1067.107 11.199,1067.107C19.293,1067.107 25.864,1072.798 25.864,1079.807C25.864,1081.791 25.338,1083.668 24.4,1085.342L10.08,1119.367C9.469,1121.457 8.619,1123.465 7.555,1125.367L5.331,1128.788Z" style="fill:rgb(54,0,157);"/>
                        </g>
                        <g transform="matrix(0.866025,-0.5,0,1.154701,29.205923,15.047439)">
                            <ellipse cx="1130.184" cy="1004.148" rx="30.909" ry="26.768" style="fill:rgb(54,0,157);"/>
                        </g>
                        <path d="M1007.974,613.954C1007.974,613.954 1018.798,625.052 1029.972,626.655C1038.673,627.903 1040.816,612.517 1042.492,606.284C1043.79,601.453 1049.738,579.221 1065.953,583.428C1073.103,585.283 1086.452,594.706 1086.506,620.701" style="fill:none;stroke:black;stroke-width:7.02px;"/>
                    </g>
                </g>
            </g>
        </g>
    </g>
    <defs>
        <linearGradient id="_Linear2" x1="0" y1="0" x2="1" y2="0" gradientUnits="userSpaceOnUse" gradientTransform="matrix(67.535452,-58.487417,67.535452,58.487417,-45.969012,1129.315997)"><stop offset="0" style="stop-color:rgb(255,211,29);stop-opacity:0"/><stop offset="1" style="stop-color:rgb(255,211,29);stop-opacity:1"/></linearGradient>
    </defs>
</svg>
