<?xml version="1.0" encoding="UTF-8" standalone="no"?>
<!DOCTYPE svg PUBLIC "-//W3C//DTD SVG 1.1//EN" "http://www.w3.org/Graphics/SVG/1.1/DTD/svg11.dtd">
<svg width="100%" height="100%" viewBox="0 0 2048 2048" version="1.1" xmlns="http://www.w3.org/2000/svg" xmlns:xlink="http://www.w3.org/1999/xlink" xml:space="preserve" xmlns:serif="http://www.serif.com/" style="fill-rule:evenodd;clip-rule:evenodd;stroke-linejoin:round;stroke-miterlimit:2;">
    <rect id="Logo" x="0" y="0" width="2048" height="2048" style="fill:none;"/>
    <g id="Logo1" serif:id="Logo">
        <g transform="matrix(1.64604,-0.732345,0.732345,1.64604,-1198.12,215.181)">
            <g transform="matrix(1,0,0,-1,571.516,1461.2)">
                <path d="M453.078,0.673C379.285,3.54 302.164,19.45 239.078,44.829C187.207,65.692 136.945,96.215 95.078,132.278C87.469,138.833 -4.383,229.715 0.164,226.192C47.488,189.512 88.902,165.715 139.578,146.071C147.004,143.192 159.523,138.173 167.402,134.923C224.375,111.395 281.73,97.563 349.598,90.989C383.289,87.727 431.559,87.965 463.398,91.555C516.633,97.555 578.863,113.923 634.078,136.446C648.34,142.262 688.711,161.645 691.758,164.137C693.051,165.192 701.852,210.813 730.098,362.833C750.266,471.36 766.562,560.36 766.312,560.606C766.066,560.856 761.516,561.88 756.203,562.887C750.887,563.891 746.371,564.895 746.164,565.114C745.816,565.477 748.496,581.212 748.992,581.739C749.223,581.989 786.938,575.032 787.141,574.704C787.207,574.598 786.148,568.532 784.789,561.223C783.426,553.919 782.551,547.704 782.84,547.415C783.133,547.122 792.078,545.266 802.723,543.29C813.371,541.309 822.215,539.587 822.383,539.462C822.551,539.337 821.547,533.278 820.152,525.997C818.758,518.715 817.805,512.454 818.035,512.083C818.266,511.712 827.086,509.852 837.641,507.958C848.195,506.059 857.02,504.02 857.25,503.423C857.551,502.633 783.984,103.911 780.031,84.93C779.586,82.786 776.926,80.997 764.289,74.348C725.328,53.852 686.984,38.438 643.078,25.626C576.102,6.083 516.223,-1.781 453.078,0.673ZM513.629,19.024C573.297,23.532 641.023,39.911 701.895,64.559C726.328,74.454 763.527,92.923 764.125,95.458C764.395,96.587 781.008,185.696 801.047,293.481C823.508,414.313 837.102,489.688 836.492,490.063C834.5,491.294 815.344,494.173 814.605,493.352C814.184,492.887 798.215,408.36 779.117,305.508C760.02,202.657 744.098,118.2 743.738,117.821C742.465,116.493 715.949,102.809 701.594,96.071C661.566,77.29 608.359,59.454 561.578,49.141C517.488,39.419 485.262,35.942 439.137,35.926C365.566,35.903 287.996,49.266 221.5,73.419C214.824,75.841 209.75,77.477 210.223,77.051C211.605,75.801 233.031,66.227 246.578,60.805C301.047,39.005 362.16,25.188 429.078,19.536C447.754,17.962 495.691,17.669 513.629,19.024ZM479.078,54.497C508.488,56.801 533.711,60.591 559.281,66.54C617.812,80.165 662.492,95.962 710.75,120.102L728.422,128.942L729.48,134.223C733.27,153.204 801.578,522.255 801.578,523.766C801.578,525.352 800.07,525.915 791.828,527.411C786.465,528.383 781.379,529.368 780.527,529.598C779.211,529.954 773.605,501.118 744.027,341.88L709.078,153.743L705.203,151.282C698.742,147.184 662.926,129.583 649.078,123.704C568.117,89.321 483.688,71.008 406.113,71.008C333.57,71.008 258.707,83.598 190.078,107.337C182.93,109.809 176.961,111.715 176.812,111.571C176.418,111.18 200.148,100.563 211.859,95.891C272.27,71.782 339.789,57.649 413.578,53.676C430.051,52.786 462.441,53.196 479.078,54.497ZM398.078,368.923C379.32,372.548 379.082,372.626 379.387,375.051C379.559,376.403 380.57,382.145 381.637,387.809C382.707,393.473 383.578,398.676 383.578,399.364C383.578,400.208 377.312,401.747 364.512,404.048C354.023,405.934 344.996,407.751 344.449,408.091C343.816,408.477 344.387,413.563 346.008,422.032C347.414,429.36 348.453,435.469 348.32,435.602C348.055,435.868 310.391,443.008 309.262,443.008C308.184,443.008 308.43,445.528 310.703,457.719C313.113,470.661 311.344,469.423 323.93,466.965L329.777,465.825L329.117,461.419C328.754,458.993 328.82,457.012 329.27,457.012C331.789,457.028 440.227,436.555 440.949,435.926C441.434,435.505 441.203,431.723 440.426,427.341C439.109,419.93 438.898,419.52 436.555,419.747C435.195,419.88 418.906,422.782 400.359,426.196C381.816,429.61 366.402,432.165 366.113,431.876C365.82,431.583 365.195,429.266 364.719,426.731L363.855,422.114L368.469,421.161C371.004,420.637 387.254,417.606 404.578,414.426C421.902,411.247 436.23,408.54 436.414,408.407C436.906,408.063 434.457,393.426 433.711,392.239C433.305,391.594 427.422,392.313 417.285,394.247C408.602,395.903 401.316,397.079 401.102,396.864C400.887,396.649 400.41,394.231 400.047,391.489L399.387,386.505L415.484,383.587C424.336,381.985 431.578,380.376 431.578,380.008C431.578,379.641 431.07,376.805 430.449,373.708L429.316,368.075L424.043,366.54C421.145,365.7 418.391,365.063 417.926,365.13C417.461,365.196 408.527,366.899 398.078,368.923ZM232.578,387.298C217.961,395.442 219.004,394.317 216.141,404.958C209.895,428.141 207.539,446.309 207.516,471.485C207.492,498.798 210.297,521.157 217.047,547.407C228.215,590.856 250.926,631.02 282.277,662.77C292.797,673.426 307.957,686.38 308.387,685.083C308.559,684.575 307.73,678.841 306.547,672.341L304.402,660.52L295.738,651.512C261.539,615.95 240.172,575.727 230.66,529.005C220.523,479.215 223.566,430.88 239.418,389.758C241.059,385.497 242.332,382.008 242.242,382.008C242.152,382.008 237.805,384.391 232.578,387.298ZM214.078,398.376C212.43,399.622 207.48,403.313 203.086,406.579C185.684,419.489 163.074,444.481 151.574,463.516C146.047,472.669 144.656,476.563 141.559,491.583C132.266,536.641 136.285,591.489 152.289,638.008C173.348,699.223 218.965,752.024 274.078,778.977C327.02,804.864 380.664,808.692 442.578,791.005C454.016,787.735 462.758,783.43 476.059,774.516C504.832,755.223 529.172,732.606 557.836,698.508C563.848,691.36 569.34,685.098 570.039,684.598C570.934,683.958 573.938,685.895 580.082,691.067L588.848,698.45L594.184,692.481C597.117,689.196 601.441,684.169 603.797,681.309C606.152,678.454 608.406,676.204 608.805,676.309C609.766,676.571 781.27,818.93 782.699,820.653C783.789,821.969 783.359,822.551 766.898,842.051L764.715,844.637L770.148,848.973C773.133,851.356 775.578,853.727 775.578,854.235C775.578,855.126 766.586,866.68 760.191,874.008C758.512,875.934 776.289,858.383 799.699,835.008C843.16,791.61 851.5,782.715 869.293,760.813L879.434,748.329L801.891,683.919C759.238,648.493 723.777,619.18 723.082,618.774C721.906,618.094 702.059,621.196 701.035,622.219C700.703,622.551 829.098,729.79 852.977,749.13C854.93,750.712 854.734,751.044 845.148,762.403C839.742,768.809 834.953,774.278 834.504,774.555C833.926,774.911 683.176,650.841 660.363,631.235C658.844,629.93 656.77,630.114 642.012,632.872L625.375,635.981L616.887,644.02C612.219,648.438 607.863,651.93 607.211,651.782C606.559,651.633 604.266,653.458 602.113,655.837C593.934,664.891 562.93,683.548 541.578,692.262C512.805,704.008 476.641,712.333 448.809,713.614C417.586,715.055 385.289,708.266 355.953,694.098L343.828,688.243L331.574,690.591C324.836,691.88 319.184,693.071 319.016,693.235C318.852,693.403 323.789,696.563 329.988,700.262C355.59,715.524 386.957,726.286 416.555,729.958C428.91,731.489 455.691,731.243 469.211,729.469C485.078,727.391 503.609,723.298 521.578,717.903C531.98,714.782 532.25,714.747 528.719,716.985C518.039,723.751 490.414,734.258 468.078,740.048C444.48,746.165 432.129,748.094 412.551,748.719C377.91,749.833 349.121,743.508 317.414,727.825C294.777,716.626 278.18,704.485 260.004,685.844C246.219,671.7 241.117,665.481 230.957,650.43C204.188,610.786 189.578,560.255 189.578,507.317C189.578,471.411 196.637,439.239 211.086,409.258C214.598,401.969 217.383,396.028 217.273,396.055C217.168,396.083 215.73,397.126 214.078,398.376ZM181.082,439.032C169.176,481.454 168.73,526.434 179.734,574.93C198.785,658.876 259.453,728.688 336.078,754.844C373.238,767.524 408.055,769.868 448.535,762.415C461.523,760.02 482.387,754.79 491.621,751.606C498.566,749.212 497.453,750.548 488.934,754.825C466.465,766.102 438.465,775.18 408.578,780.876C327.41,796.344 247.977,761.536 197.281,688.286C171.754,651.399 157.887,609.137 154.453,557.766C151.773,517.68 159.66,476.856 176.77,442.223C180.105,435.465 182.98,430.075 183.148,430.247C183.32,430.419 182.391,434.372 181.082,439.032ZM732.473,713.825L819.57,786.141L809.469,798.141C803.73,804.958 798.824,809.93 798.109,809.657C797.418,809.395 757.691,776.665 709.828,736.923L622.805,664.669L632.941,652.911C638.516,646.438 643.594,641.227 644.227,641.329C644.855,641.426 684.566,674.051 732.473,713.825Z" style="fill:rgb(0,242,255);fill-rule:nonzero;"/>
            </g>
            <g transform="matrix(1.11332,0.207078,-0.207078,1.11332,139.942,-237.025)">
                <path d="M843.016,1262.65C779.016,1262.65 719.904,1252.25 665.659,1231.57C611.1,1210.76 563.823,1181.49 523.786,1143.81C483.668,1106.05 452.182,1061.03 429.37,1008.72C406.607,956.518 395.153,899.035 395.153,836.239L395.153,833.98C395.153,774.294 406.379,718.346 428.761,666.121C451.133,613.92 481.958,568.403 521.207,529.547C560.476,490.67 607.38,460.199 661.964,438.208C716.316,416.311 775.155,405.312 838.5,405.312C911.05,405.312 973.628,415.999 1026.29,437.062C1078.89,458.105 1127.02,487.326 1170.67,524.736L1183.88,536.063L1032.67,717.79L1019.08,706.347C991.899,683.46 964.214,665.891 935.963,653.733C908.246,641.804 876.118,635.976 839.629,635.976C813.687,635.976 789.613,641.047 767.426,651.287C745.101,661.591 725.692,675.666 709.206,693.526C692.566,711.552 679.425,732.717 669.719,756.983C659.998,781.287 655.174,807.334 655.174,835.109L655.174,837.368C655.174,866.682 660.01,893.912 669.781,919.039C679.392,943.752 692.906,964.889 710.41,982.394C728.002,999.986 748.713,1013.76 772.513,1023.77C796.422,1033.82 822.944,1038.76 852.05,1038.76C895.266,1038.76 931.583,1030.64 960.852,1013.82L960.852,945.36L805.031,945.36L805.031,749.7L1203.94,749.7L1203.94,1131.39L1197.49,1136.69C1154.04,1172.38 1102.86,1202.29 1043.9,1226.34C984.719,1250.48 917.77,1262.65 843.016,1262.65Z" style="fill:rgb(175,0,255);"/>
            </g>
        </g>
    </g>
</svg>
